<svg width="40" height="40" viewBox="0 0 40 40" fill="none" xmlns="http://www.w3.org/2000/svg">
<path d="M26.0815 23.8077C27.6549 21.6604 28.3596 18.998 28.0547 16.3533C27.7497 13.7086 26.4575 11.2766 24.4367 9.54384C22.4158 7.81107 19.8153 6.90534 17.1554 7.00784C14.4956 7.11034 11.9724 8.21353 10.0909 10.0967C8.20936 11.9798 7.10814 14.5041 7.00755 17.1644C6.90696 19.8247 7.81443 22.425 9.5484 24.4449C11.2824 26.4648 13.715 27.7554 16.3595 28.0585C19.0041 28.3616 21.6655 27.6549 23.8115 26.0797H23.8098C23.8586 26.1447 23.9106 26.2065 23.9691 26.2666L30.2251 32.5235C30.5298 32.8284 30.9431 32.9998 31.3742 33C31.8052 33.0002 32.2187 32.829 32.5236 32.5243C32.8285 32.2196 32.9998 31.8062 33 31.3751C33.0002 30.944 32.8291 30.5305 32.5244 30.2255L26.2684 23.9686C26.2103 23.9098 26.1478 23.8571 26.0815 23.8077ZM26.5007 17.5606C26.5007 18.7344 26.2696 19.8967 25.8204 20.9812C25.3713 22.0656 24.713 23.051 23.8831 23.881C23.0532 24.711 22.068 25.3694 20.9837 25.8186C19.8994 26.2678 18.7372 26.499 17.5636 26.499C16.3899 26.499 15.2278 26.2678 14.1435 25.8186C13.0592 25.3694 12.0739 24.711 11.244 23.881C10.4141 23.051 9.75583 22.0656 9.3067 20.9812C8.85756 19.8967 8.6264 18.7344 8.6264 17.5606C8.6264 15.19 9.56799 12.9164 11.244 11.2402C12.9201 9.56388 15.1933 8.62216 17.5636 8.62216C19.9338 8.62216 22.207 9.56388 23.8831 11.2402C25.5591 12.9164 26.5007 15.19 26.5007 17.5606Z" fill="black"/>
</svg>
