<svg width="40" height="40" viewBox="0 0 40 40" fill="none" xmlns="http://www.w3.org/2000/svg">
<rect width="40" height="40" rx="10" fill="#A7A7A7"/>
<path d="M33 20C33 20 28.125 11.0625 20 11.0625C11.875 11.0625 7 20 7 20C7 20 11.875 28.9375 20 28.9375C28.125 28.9375 33 20 33 20ZM8.90612 20C9.69184 18.8058 10.5955 17.6936 11.6036 16.6801C13.695 14.5855 16.555 12.6875 20 12.6875C23.445 12.6875 26.3034 14.5855 28.398 16.6801C29.4061 17.6936 30.3098 18.8058 31.0955 20C31.0013 20.1414 30.8973 20.2974 30.7786 20.468C30.2343 21.248 29.4299 22.288 28.398 23.3199C26.3034 25.4145 23.4434 27.3125 20 27.3125C16.555 27.3125 13.6966 25.4145 11.602 23.3199C10.5939 22.3064 9.69185 21.1942 8.90612 20Z" fill="white"/>
<path d="M20 15.9375C18.9226 15.9375 17.8892 16.3655 17.1274 17.1274C16.3655 17.8892 15.9375 18.9226 15.9375 20C15.9375 21.0774 16.3655 22.1108 17.1274 22.8726C17.8892 23.6345 18.9226 24.0625 20 24.0625C21.0774 24.0625 22.1108 23.6345 22.8726 22.8726C23.6345 22.1108 24.0625 21.0774 24.0625 20C24.0625 18.9226 23.6345 17.8892 22.8726 17.1274C22.1108 16.3655 21.0774 15.9375 20 15.9375ZM14.3125 20C14.3125 18.4916 14.9117 17.0449 15.9783 15.9783C17.0449 14.9117 18.4916 14.3125 20 14.3125C21.5084 14.3125 22.9551 14.9117 24.0217 15.9783C25.0883 17.0449 25.6875 18.4916 25.6875 20C25.6875 21.5084 25.0883 22.9551 24.0217 24.0217C22.9551 25.0883 21.5084 25.6875 20 25.6875C18.4916 25.6875 17.0449 25.0883 15.9783 24.0217C14.9117 22.9551 14.3125 21.5084 14.3125 20Z" fill="white"/>
</svg>
