<svg width="40" height="40" viewBox="0 0 40 40" fill="none" xmlns="http://www.w3.org/2000/svg">
<rect width="40" height="40" rx="10" fill="#FF383C"/>
<path d="M17.9375 9.375H22.0625C22.2448 9.375 22.4197 9.44743 22.5486 9.57636C22.6776 9.7053 22.75 9.88016 22.75 10.0625V11.4375H17.25V10.0625C17.25 9.88016 17.3224 9.7053 17.4514 9.57636C17.5803 9.44743 17.7552 9.375 17.9375 9.375ZM24.125 11.4375V10.0625C24.125 9.51549 23.9077 8.99089 23.5209 8.60409C23.1341 8.2173 22.6095 8 22.0625 8H17.9375C17.3905 8 16.8659 8.2173 16.4791 8.60409C16.0923 8.99089 15.875 9.51549 15.875 10.0625V11.4375H12.4458C12.4412 11.4375 12.4366 11.4375 12.432 11.4375H11.0625C10.8802 11.4375 10.7053 11.5099 10.5764 11.6389C10.4474 11.7678 10.375 11.9427 10.375 12.125C10.375 12.3073 10.4474 12.4822 10.5764 12.6111C10.7053 12.7401 10.8802 12.8125 11.0625 12.8125H11.8023L12.9751 27.47C13.0304 28.1591 13.3433 28.8022 13.8514 29.271C14.3595 29.7399 15.0255 30.0001 15.7169 30H24.2831C24.9745 30.0001 25.6405 29.7399 26.1486 29.271C26.6567 28.8022 26.9696 28.1591 27.0249 27.47L28.1977 12.8125H28.9375C29.1198 12.8125 29.2947 12.7401 29.4236 12.6111C29.5526 12.4822 29.625 12.3073 29.625 12.125C29.625 11.9427 29.5526 11.7678 29.4236 11.6389C29.2947 11.5099 29.1198 11.4375 28.9375 11.4375H27.5694C27.5648 11.4375 27.5602 11.4375 27.5556 11.4375H24.125ZM26.8173 12.8125L25.654 27.36C25.6263 27.7046 25.4699 28.0261 25.2159 28.2605C24.9618 28.4949 24.6288 28.6251 24.2831 28.625H15.7169C15.3712 28.6251 15.0382 28.4949 14.7841 28.2605C14.5301 28.0261 14.3737 27.7046 14.346 27.36L13.1828 12.8125H26.8173ZM16.5226 14.1875C16.7046 14.177 16.8833 14.2391 17.0194 14.3603C17.1555 14.4815 17.238 14.6518 17.2486 14.8337L17.9361 26.5213C17.9433 26.7011 17.8798 26.8766 17.759 27.01C17.6383 27.1435 17.4701 27.2243 17.2904 27.2351C17.1108 27.2459 16.9341 27.1858 16.7982 27.0678C16.6624 26.9497 16.5782 26.7831 16.5639 26.6037L15.875 14.9163C15.8694 14.8259 15.8817 14.7354 15.9112 14.6498C15.9407 14.5643 15.9868 14.4854 16.0468 14.4177C16.1069 14.35 16.1797 14.2948 16.2611 14.2553C16.3425 14.2158 16.4309 14.1928 16.5212 14.1875H16.5226ZM23.4774 14.1875C23.5677 14.1928 23.6561 14.2158 23.7375 14.2553C23.819 14.2948 23.8918 14.35 23.9518 14.4177C24.0119 14.4854 24.0579 14.5643 24.0874 14.6498C24.1169 14.7354 24.1292 14.8259 24.1236 14.9163L23.4361 26.6037C23.4325 26.6951 23.4106 26.7848 23.3718 26.8676C23.3331 26.9504 23.2782 27.0247 23.2104 27.086C23.1426 27.1474 23.0632 27.1946 22.9769 27.2248C22.8906 27.2551 22.7992 27.2679 22.7079 27.2624C22.6166 27.2569 22.5274 27.2333 22.4454 27.1929C22.3633 27.1525 22.2902 27.0961 22.2302 27.0271C22.1703 26.9581 22.1247 26.8778 22.0961 26.7909C22.0675 26.7041 22.0566 26.6124 22.0639 26.5213L22.7514 14.8337C22.762 14.6518 22.8445 14.4815 22.9806 14.3603C23.1167 14.2391 23.2954 14.177 23.4774 14.1875ZM20 14.1875C20.1823 14.1875 20.3572 14.2599 20.4861 14.3889C20.6151 14.5178 20.6875 14.6927 20.6875 14.875V26.5625C20.6875 26.7448 20.6151 26.9197 20.4861 27.0486C20.3572 27.1776 20.1823 27.25 20 27.25C19.8177 27.25 19.6428 27.1776 19.5139 27.0486C19.3849 26.9197 19.3125 26.7448 19.3125 26.5625V14.875C19.3125 14.6927 19.3849 14.5178 19.5139 14.3889C19.6428 14.2599 19.8177 14.1875 20 14.1875Z" fill="white"/>
</svg>
