<svg width="40" height="40" viewBox="0 0 40 40" fill="none" xmlns="http://www.w3.org/2000/svg">
<rect width="40" height="40" rx="10" fill="#A7A7A7"/>
<path fill-rule="evenodd" clip-rule="evenodd" d="M14.375 26.5625C14.375 26.3139 14.4738 26.0754 14.6496 25.8996C14.8254 25.7238 15.0639 25.625 15.3125 25.625H32.1875C32.4361 25.625 32.6746 25.7238 32.8504 25.8996C33.0262 26.0754 33.125 26.3139 33.125 26.5625C33.125 26.8111 33.0262 27.0496 32.8504 27.2254C32.6746 27.4012 32.4361 27.5 32.1875 27.5H15.3125C15.0639 27.5 14.8254 27.4012 14.6496 27.2254C14.4738 27.0496 14.375 26.8111 14.375 26.5625ZM14.375 19.0625C14.375 18.8139 14.4738 18.5754 14.6496 18.3996C14.8254 18.2238 15.0639 18.125 15.3125 18.125H32.1875C32.4361 18.125 32.6746 18.2238 32.8504 18.3996C33.0262 18.5754 33.125 18.8139 33.125 19.0625C33.125 19.3111 33.0262 19.5496 32.8504 19.7254C32.6746 19.9012 32.4361 20 32.1875 20H15.3125C15.0639 20 14.8254 19.9012 14.6496 19.7254C14.4738 19.5496 14.375 19.3111 14.375 19.0625ZM14.375 11.5625C14.375 11.3139 14.4738 11.0754 14.6496 10.8996C14.8254 10.7238 15.0639 10.625 15.3125 10.625H32.1875C32.4361 10.625 32.6746 10.7238 32.8504 10.8996C33.0262 11.0754 33.125 11.3139 33.125 11.5625C33.125 11.8111 33.0262 12.0496 32.8504 12.2254C32.6746 12.4012 32.4361 12.5 32.1875 12.5H15.3125C15.0639 12.5 14.8254 12.4012 14.6496 12.2254C14.4738 12.0496 14.375 11.8111 14.375 11.5625ZM8.75 13.4375C9.24728 13.4375 9.72419 13.24 10.0758 12.8883C10.4275 12.5367 10.625 12.0598 10.625 11.5625C10.625 11.0652 10.4275 10.5883 10.0758 10.2367C9.72419 9.88504 9.24728 9.6875 8.75 9.6875C8.25272 9.6875 7.77581 9.88504 7.42417 10.2367C7.07254 10.5883 6.875 11.0652 6.875 11.5625C6.875 12.0598 7.07254 12.5367 7.42417 12.8883C7.77581 13.24 8.25272 13.4375 8.75 13.4375ZM8.75 20.9375C9.24728 20.9375 9.72419 20.74 10.0758 20.3883C10.4275 20.0367 10.625 19.5598 10.625 19.0625C10.625 18.5652 10.4275 18.0883 10.0758 17.7367C9.72419 17.385 9.24728 17.1875 8.75 17.1875C8.25272 17.1875 7.77581 17.385 7.42417 17.7367C7.07254 18.0883 6.875 18.5652 6.875 19.0625C6.875 19.5598 7.07254 20.0367 7.42417 20.3883C7.77581 20.74 8.25272 20.9375 8.75 20.9375ZM8.75 28.4375C9.24728 28.4375 9.72419 28.24 10.0758 27.8883C10.4275 27.5367 10.625 27.0598 10.625 26.5625C10.625 26.0652 10.4275 25.5883 10.0758 25.2367C9.72419 24.885 9.24728 24.6875 8.75 24.6875C8.25272 24.6875 7.77581 24.885 7.42417 25.2367C7.07254 25.5883 6.875 26.0652 6.875 26.5625C6.875 27.0598 7.07254 27.5367 7.42417 27.8883C7.77581 28.24 8.25272 28.4375 8.75 28.4375Z" fill="white"/>
</svg>
