<svg width="40" height="40" viewBox="0 0 40 40" fill="none" xmlns="http://www.w3.org/2000/svg">
<rect width="40" height="40" rx="10" fill="#A7A7A7"/>
<path d="M20 20C21.3924 20 22.7277 19.4469 23.7123 18.4623C24.6969 17.4777 25.25 16.1424 25.25 14.75C25.25 13.3576 24.6969 12.0223 23.7123 11.0377C22.7277 10.0531 21.3924 9.5 20 9.5C18.6076 9.5 17.2723 10.0531 16.2877 11.0377C15.3031 12.0223 14.75 13.3576 14.75 14.75C14.75 16.1424 15.3031 17.4777 16.2877 18.4623C17.2723 19.4469 18.6076 20 20 20ZM23.5 14.75C23.5 15.6783 23.1313 16.5685 22.4749 17.2249C21.8185 17.8813 20.9283 18.25 20 18.25C19.0717 18.25 18.1815 17.8813 17.5251 17.2249C16.8687 16.5685 16.5 15.6783 16.5 14.75C16.5 13.8217 16.8687 12.9315 17.5251 12.2751C18.1815 11.6187 19.0717 11.25 20 11.25C20.9283 11.25 21.8185 11.6187 22.4749 12.2751C23.1313 12.9315 23.5 13.8217 23.5 14.75ZM30.5 28.75C30.5 30.5 28.75 30.5 28.75 30.5H11.25C11.25 30.5 9.5 30.5 9.5 28.75C9.5 27 11.25 21.75 20 21.75C28.75 21.75 30.5 27 30.5 28.75ZM28.75 28.743C28.7482 28.3125 28.4805 27.0175 27.294 25.831C26.153 24.69 24.0058 23.5 20 23.5C15.9925 23.5 13.847 24.69 12.706 25.831C11.5195 27.0175 11.2535 28.3125 11.25 28.743H28.75Z" fill="white"/>
</svg>
