<svg width="40" height="40" viewBox="0 0 40 40" fill="none" xmlns="http://www.w3.org/2000/svg">
<rect width="40" height="40" rx="10" fill="#A7A7A7"/>
<g clip-path="url(#clip0_204_1127)">
<path d="M28.7089 25.2617C31.473 22.795 33.0005 20 33.0005 20C33.0005 20 28.1255 11.0625 20.0005 11.0625C18.4399 11.0679 16.8969 11.3931 15.4668 12.018L16.718 13.2709C17.7701 12.8876 18.8808 12.6902 20.0005 12.6875C23.4455 12.6875 26.3039 14.5855 28.3985 16.6801C29.4066 17.6936 30.3103 18.8058 31.096 20C31.0018 20.1414 30.8978 20.2974 30.7792 20.468C30.2348 21.248 29.4304 22.288 28.3985 23.3199C28.1304 23.588 27.8509 23.8529 27.5584 24.1096L28.7089 25.2617Z" fill="white"/>
<path d="M25.3575 21.911C25.7201 20.8967 25.7872 19.8004 25.5511 18.7494C25.315 17.6985 24.7853 16.7362 24.0236 15.9746C23.262 15.2129 22.2997 14.6832 21.2488 14.4471C20.1979 14.211 19.1015 14.2781 18.0872 14.6407L19.4246 15.9781C20.0491 15.8887 20.6858 15.946 21.2844 16.1454C21.8829 16.3449 22.4267 16.6809 22.8728 17.127C23.3189 17.5731 23.655 18.117 23.8544 18.7155C24.0538 19.314 24.1111 19.9507 24.0217 20.5752L25.3575 21.911ZM20.5751 24.0219L21.9108 25.3576C20.8966 25.7202 19.8002 25.7874 18.7493 25.5513C17.6983 25.3151 16.7361 24.7854 15.9744 24.0238C15.2128 23.2621 14.6831 22.2999 14.4469 21.2489C14.2108 20.198 14.278 19.1016 14.6406 18.0874L15.978 19.4247C15.8886 20.0492 15.9459 20.686 16.1453 21.2845C16.3447 21.883 16.6808 22.4269 17.1269 22.873C17.573 23.3191 18.1168 23.6551 18.7153 23.8546C19.3138 24.054 19.9506 24.1113 20.5751 24.0219Z" fill="white"/>
<path d="M12.4437 15.8887C12.1512 16.1487 11.8701 16.412 11.602 16.6801C10.5939 17.6936 9.69022 18.8058 8.9045 20L9.22137 20.468C9.76575 21.248 10.5701 22.288 11.602 23.3199C13.6966 25.4145 16.5566 27.3125 20 27.3125C21.1635 27.3125 22.2588 27.0964 23.2825 26.7275L24.5337 27.982C23.1036 28.6069 21.5607 28.9321 20 28.9375C11.875 28.9375 7 20 7 20C7 20 8.52588 17.2034 11.2916 14.7382L12.4421 15.8904L12.4437 15.8887ZM29.1747 30.3252L9.67475 10.8252L10.8253 9.67474L30.3253 29.1747L29.1747 30.3252Z" fill="white"/>
</g>
<defs>
<clipPath id="clip0_204_1127">
<rect width="26" height="26" fill="white" transform="translate(7 7)"/>
</clipPath>
</defs>
</svg>
