<svg width="40" height="40" viewBox="0 0 40 40" fill="none" xmlns="http://www.w3.org/2000/svg">
<rect width="40" height="40" rx="10" fill="#6155F5"/>
<g clip-path="url(#clip0_204_1124)">
<path d="M19.3125 10.3998C17.5305 10.5275 15.8191 11.1486 14.3701 12.1938C12.9211 13.2389 11.7915 14.6667 11.1079 16.3173C10.4243 17.968 10.2136 19.7763 10.4994 21.5399C10.7853 23.3035 11.5563 24.9527 12.7263 26.303L19.3125 19.7154V10.3998ZM20.6875 10.3998V19.3125H29.6003C29.4346 17.0035 28.4424 14.8315 26.8054 13.1946C25.1685 11.5576 22.9965 10.5654 20.6875 10.3998ZM29.6003 20.6875H20.2846L13.6984 27.2737C15.0487 28.4433 16.6978 29.214 18.4612 29.4996C20.2245 29.7852 22.0326 29.5744 23.683 28.8908C25.3334 28.2073 26.761 27.0779 27.8061 25.6291C28.8511 24.1803 29.4724 22.4693 29.6003 20.6875ZM9 20C9 17.0826 10.1589 14.2847 12.2218 12.2218C14.2847 10.1589 17.0826 9 20 9C22.9174 9 25.7153 10.1589 27.7782 12.2218C29.8411 14.2847 31 17.0826 31 20C31 22.9174 29.8411 25.7153 27.7782 27.7782C25.7153 29.8411 22.9174 31 20 31C17.0826 31 14.2847 29.8411 12.2218 27.7782C10.1589 25.7153 9 22.9174 9 20Z" fill="white"/>
</g>
<defs>
<clipPath id="clip0_204_1124">
<rect width="22" height="22" fill="white" transform="translate(9 9)"/>
</clipPath>
</defs>
</svg>
