<svg width="30" height="30" viewBox="0 0 30 30" fill="none" xmlns="http://www.w3.org/2000/svg">
<path d="M15 0C23.2843 0 30 6.71573 30 15C30 23.2843 23.2843 30 15 30C6.71573 30 0 23.2843 0 15C0 6.71573 6.71573 0 15 0ZM7.5 12.75C6.90326 12.75 6.33114 12.9872 5.90918 13.4092C5.48722 13.8311 5.25 14.4033 5.25 15C5.25 15.5967 5.48722 16.1689 5.90918 16.5908C6.33114 17.0128 6.90326 17.25 7.5 17.25C8.09674 17.25 8.66886 17.0128 9.09082 16.5908C9.51278 16.1689 9.75 15.5967 9.75 15C9.75 14.4033 9.51278 13.8311 9.09082 13.4092C8.66886 12.9872 8.09674 12.75 7.5 12.75ZM15 12.75C14.4033 12.75 13.8311 12.9872 13.4092 13.4092C12.9872 13.8311 12.75 14.4033 12.75 15C12.75 15.5967 12.9872 16.1689 13.4092 16.5908C13.8311 17.0128 14.4033 17.25 15 17.25C15.5967 17.25 16.1689 17.0128 16.5908 16.5908C17.0128 16.1689 17.25 15.5967 17.25 15C17.25 14.4033 17.0128 13.8311 16.5908 13.4092C16.1689 12.9872 15.5967 12.75 15 12.75ZM22.5 12.75C21.9033 12.75 21.3311 12.9872 20.9092 13.4092C20.4872 13.8311 20.25 14.4033 20.25 15C20.25 15.5967 20.4872 16.1689 20.9092 16.5908C21.3311 17.0128 21.9033 17.25 22.5 17.25C23.0967 17.25 23.6689 17.0128 24.0908 16.5908C24.5128 16.1689 24.75 15.5967 24.75 15C24.75 14.4033 24.5128 13.8311 24.0908 13.4092C23.6689 12.9872 23.0967 12.75 22.5 12.75Z" fill="#9F9F9F"/>
</svg>
